<svg id="OBJECTS" xmlns="http://www.w3.org/2000/svg" viewBox="0 0 232.66 291.57"><defs><style>.cls-1,.cls-3{fill:#172433;}.cls-2{fill:#ffe817;}.cls-3{font-size:34.48px;font-family:Montserrat-Bold, Montserrat;font-weight:700;letter-spacing:0.19em;}.cls-4{letter-spacing:0.2em;}.cls-5{letter-spacing:0.2em;}.cls-6{font-size:20.14px;fill:#f7f7f7;font-family:Montserrat-Medium, Montserrat;font-weight:500;letter-spacing:0.6em;}.cls-7{letter-spacing:0.59em;}</style></defs><title>Furn</title><rect class="cls-1" x="89.03" y="289.07" width="39.69" height="2.5"/><polygon class="cls-2" points="129.46 89.42 88.28 89.42 30.46 215.19 187.28 215.19 129.46 89.42"/><path class="cls-1" d="M358.87,320.43H141.13V114.84H358.87Zm-215.24-2.5H356.37V117.34H143.63Z" transform="translate(-141.13 -114.84)"/><path class="cls-1" d="M231.75,297.52H186.23a1.37,1.37,0,0,1-1.37-1.37V285.29a1.37,1.37,0,0,1,1.37-1.37h45.52a1.37,1.37,0,0,1,1.37,1.37v10.86A1.37,1.37,0,0,1,231.75,297.52Zm-44.15-2.74h42.78v-8.12H187.6Z" transform="translate(-141.13 -114.84)"/><path class="cls-1" d="M194.13,319h-4.32a1.37,1.37,0,0,1-1.32-1.74l6-21.44a1.37,1.37,0,0,1,2.64.73l-5.49,19.71h1.47l5.7-20.44a1.37,1.37,0,0,1,2.64.73l-6,21.45A1.36,1.36,0,0,1,194.13,319Z" transform="translate(-141.13 -114.84)"/><path class="cls-1" d="M228.17,319h-4.32a1.36,1.36,0,0,1-1.32-1l-6-21.45a1.37,1.37,0,0,1,1.32-1.73h4.32a1.38,1.38,0,0,1,1.32,1l6,21.44a1.37,1.37,0,0,1-1.32,1.74Zm-3.28-2.74h1.47l-5.21-18.7h-1.47Z" transform="translate(-141.13 -114.84)"/><path class="cls-1" d="M211.15,297.52h-4.32a1.37,1.37,0,0,1,0-2.74h4.32a1.37,1.37,0,0,1,0,2.74Z" transform="translate(-141.13 -114.84)"/><path class="cls-1" d="M224.57,291.91H193.41a1.37,1.37,0,0,1,0-2.74h31.16a1.37,1.37,0,0,1,0,2.74Z" transform="translate(-141.13 -114.84)"/><path class="cls-1" d="M215.53,286.66H201.81a1.36,1.36,0,0,1-1.35-1.14l-3.21-19a1.36,1.36,0,0,1,1.35-1.6h20.14a1.35,1.35,0,0,1,1,.48,1.37,1.37,0,0,1,.3,1.12l-3.21,19A1.36,1.36,0,0,1,215.53,286.66ZM203,283.92h11.4l2.75-16.23h-16.9Z" transform="translate(-141.13 -114.84)"/><path class="cls-1" d="M208.67,267.6c-4.8,0-8.57-7.15-8.57-16.28,0-8.73,7.33-15.62,7.64-15.91a1.38,1.38,0,0,1,1.86,0c.32.29,7.64,7.18,7.64,15.91C217.24,260.45,213.48,267.6,208.67,267.6Zm0-29.21c-1.85,2.06-5.83,7.14-5.83,12.93,0,8,3.07,13.54,5.83,13.54s5.83-5.56,5.83-13.54C214.5,245.53,210.53,240.45,208.67,238.39Z" transform="translate(-141.13 -114.84)"/><path class="cls-1" d="M208.67,267a1.37,1.37,0,0,1-1.37-1.37V244.73a1.37,1.37,0,0,1,2.74,0v20.89A1.37,1.37,0,0,1,208.67,267Z" transform="translate(-141.13 -114.84)"/><path class="cls-1" d="M250.15,181.25a1.37,1.37,0,0,1-1.37-1.37l-.31-63.09a1.37,1.37,0,0,1,2.74,0l.31,63.1A1.38,1.38,0,0,1,250.15,181.25Z" transform="translate(-141.13 -114.84)"/><path class="cls-1" d="M253.17,189.68h-6.35a1.37,1.37,0,0,1-1.37-1.37v-5.26a4.55,4.55,0,0,1,9.09,0v5.26A1.37,1.37,0,0,1,253.17,189.68Zm-5-2.74h3.6v-3.89a1.8,1.8,0,0,0-3.6,0Z" transform="translate(-141.13 -114.84)"/><path class="cls-1" d="M272.85,205.77H227.14a1.37,1.37,0,0,1-1.37-1.37v-3.65c-.19-4.09,3.34-7.71,10.49-10.67a59.73,59.73,0,0,1,10.2-3.11,1.24,1.24,0,0,1,.27,0h5.62l.21-.11a1.4,1.4,0,0,1,1.39.22,61.21,61.21,0,0,1,9.78,3c7.14,2.95,10.67,6.56,10.49,10.7v3.62A1.37,1.37,0,0,1,272.85,205.77ZM228.51,203h43v-2.34c.17-3.59-4.67-6.37-8.76-8.07a58.66,58.66,0,0,0-9.6-2.94h-6.25a58.83,58.83,0,0,0-9.59,2.94c-4.1,1.7-8.94,4.48-8.77,8.07Z" transform="translate(-141.13 -114.84)"/><path class="cls-1" d="M313.92,317.36l-6.41-38.43a10.06,10.06,0,0,0-9.95-8.43H276.28a1.37,1.37,0,1,0,0,2.74h15.21l-7.38,44.12a1.37,1.37,0,0,0,1.13,1.58l.23,0a1.36,1.36,0,0,0,1.35-1.14l7.45-44.58h3.29a7.33,7.33,0,0,1,7.25,6.14l6.41,38.44a1.36,1.36,0,0,0,1.35,1.14l.23,0A1.37,1.37,0,0,0,313.92,317.36Z" transform="translate(-141.13 -114.84)"/><path class="cls-1" d="M265.55,282.27" transform="translate(-141.13 -114.84)"/><path class="cls-1" d="M241.57,319a.93.93,0,0,1-.23,0,1.36,1.36,0,0,1-1.12-1.57l2.83-17a1.37,1.37,0,0,1,2.71.46l-2.84,17A1.36,1.36,0,0,1,241.57,319Z" transform="translate(-141.13 -114.84)"/><path class="cls-1" d="M247.47,283.62h-.23a1.37,1.37,0,0,1-1.12-1.58l1.73-10.38a1.37,1.37,0,1,1,2.7.45l-1.73,10.38A1.36,1.36,0,0,1,247.47,283.62Z" transform="translate(-141.13 -114.84)"/><path class="cls-1" d="M268.68,319a1.37,1.37,0,0,1-1.35-1.15l-2.7-16.19a1.37,1.37,0,1,1,2.7-.45l2.7,16.19a1.38,1.38,0,0,1-1.13,1.58Z" transform="translate(-141.13 -114.84)"/><path class="cls-1" d="M262.77,283.59a1.38,1.38,0,0,1-1.35-1.14l-.51-3.07a7.32,7.32,0,0,0-7.24-6.14H232.38a1.37,1.37,0,0,1,0-2.74h21.29a10,10,0,0,1,9.94,8.43l.52,3.07a1.37,1.37,0,0,1-1.13,1.57A.9.9,0,0,1,262.77,283.59Z" transform="translate(-141.13 -114.84)"/><path class="cls-1" d="M311.72,295.11l.07-.1a18.18,18.18,0,0,0,3.34-10.51v-27a16.45,16.45,0,0,0-16.44-16.44H280.62a16.45,16.45,0,0,0-16.44,16.44v23.31H248.55a11.17,11.17,0,0,0-11.26,10.41,11,11,0,0,0,10.94,11.51h48.63c.37,0,.74,0,1.11,0l.33,0,.78-.08.34-.05.89-.14.18,0c.35-.07.7-.15,1-.24l.24-.07c.27-.07.54-.15.8-.24l.29-.1c.27-.09.54-.19.8-.3l.19-.08c.34-.14.67-.28,1-.44l.07,0c.3-.14.59-.3.88-.46l.2-.12c.26-.14.51-.3.76-.46l.15-.1a18.74,18.74,0,0,0,1.74-1.3l.11-.09.71-.65.11-.1a17.78,17.78,0,0,0,1.49-1.64h0C311.3,295.68,311.51,295.4,311.72,295.11Zm-71.67-2.51a8.23,8.23,0,0,1,8.18-9h17a1.18,1.18,0,0,0,.68,0h18.54a1.37,1.37,0,1,0,0-2.74H266.92V257.54a13.71,13.71,0,0,1,13.7-13.7h18.07a13.71,13.71,0,0,1,13.7,13.7v27A15.55,15.55,0,0,1,296.86,300H248.47A8.38,8.38,0,0,1,240.05,292.6Z" transform="translate(-141.13 -114.84)"/><text class="cls-3" transform="translate(39.48 248.54)">F<tspan class="cls-4" x="28.45" y="0">u</tspan><tspan class="cls-5" x="59.04" y="0">r</tspan><tspan class="cls-4" x="80.66" y="0">nx</tspan></text><text class="cls-6" transform="translate(2.36 274.52)">FURNI<tspan class="cls-7" x="126.35" y="0">T</tspan><tspan x="149.99" y="0">URE</tspan></text><polygon class="cls-1" points="108.87 56.19 99.66 74 118.08 74 108.87 56.19"/></svg>